<svg width="25" height="24" viewBox="0 0 25 24" fill="none" xmlns="http://www.w3.org/2000/svg">
<path d="M12.662 3.12744C7.81602 3.12744 3.85114 7.09232 3.85114 11.9383C3.85114 16.7843 7.81602 20.7491 12.662 20.7491C17.5079 20.7491 21.4728 16.7843 21.4728 11.9383C21.4728 7.09232 17.5079 3.12744 12.662 3.12744ZM12.662 18.9135C8.84395 18.9135 5.68673 15.7563 5.68673 11.9383C5.68673 8.12025 8.84395 4.96303 12.662 4.96303C16.48 4.96303 19.6372 8.12025 19.6372 11.9383C19.6372 15.7563 16.48 18.9135 12.662 18.9135Z" fill="#22242C"/>
<path d="M16.9212 10.9837H13.6171V7.67961C13.6171 7.16564 13.1766 6.7251 12.6626 6.7251C12.1486 6.7251 11.7081 7.16564 11.7081 7.67961V10.9837H8.40403C7.89007 10.9837 7.44952 11.4242 7.44952 11.9382C7.44952 12.4521 7.89007 12.8927 8.40403 12.8927H11.7081V16.1968C11.7081 16.7107 12.1486 17.1513 12.6626 17.1513C13.1766 17.1513 13.6171 16.7107 13.6171 16.1968V12.8927H16.9212C17.4352 12.8927 17.8757 12.4521 17.8757 11.9382C17.8757 11.4242 17.4352 10.9837 16.9212 10.9837Z" fill="#22242C"/>
</svg>
