<svg width="19" height="19" viewBox="0 0 19 19" fill="none" xmlns="http://www.w3.org/2000/svg">
<path d="M15.8334 6.33317L16.1869 6.68672L16.5405 6.33317L16.1869 5.97962L15.8334 6.33317ZM11.875 15.5415C12.1512 15.5415 12.375 15.3176 12.375 15.0415C12.375 14.7654 12.1512 14.5415 11.875 14.5415L11.875 15.5415ZM12.2286 10.6451L16.1869 6.68672L15.4798 5.97962L11.5215 9.93795L12.2286 10.6451ZM16.1869 5.97962L12.2286 2.02128L11.5215 2.72839L15.4798 6.68672L16.1869 5.97962ZM15.8334 5.83317L7.52088 5.83317L7.52088 6.83317L15.8334 6.83317L15.8334 5.83317ZM7.52087 15.5415L11.875 15.5415L11.875 14.5415L7.52087 14.5415L7.52087 15.5415ZM2.66671 10.6873C2.66671 13.3682 4.83999 15.5415 7.52087 15.5415L7.52087 14.5415C5.39228 14.5415 3.66671 12.8159 3.66671 10.6873L2.66671 10.6873ZM7.52088 5.83317C4.84 5.83317 2.66671 8.00645 2.66671 10.6873L3.66671 10.6873C3.66671 8.55874 5.39228 6.83317 7.52088 6.83317L7.52088 5.83317Z" fill="#252F69"/>
</svg>
