<svg width="19" height="19" viewBox="0 0 19 19" fill="none" xmlns="http://www.w3.org/2000/svg">
<path d="M10.8152 2.38269H10.3152V2.40763L10.3177 2.43244L10.8152 2.38269ZM10.8152 2.38268H11.3152V2.35774L11.3128 2.33293L10.8152 2.38268ZM10.8746 2.97631L10.3771 3.02606V3.02606L10.8746 2.97631ZM11.2509 4.24007L11.4423 3.77813L11.4423 3.77813L11.2509 4.24007ZM12.4106 3.61256L12.7273 3.99954L12.4106 3.61256ZM12.8721 3.23496L12.5555 2.84799V2.84799L12.8721 3.23496ZM13.5247 2.85863L13.4998 3.358L13.5247 2.85863ZM14.1366 3.29803L13.783 3.65158V3.65158L14.1366 3.29803ZM15.0971 4.2586L14.7436 4.61215L14.7436 4.61215L15.0971 4.2586ZM15.5365 4.87047L16.0359 4.84556V4.84556L15.5365 4.87047ZM15.1602 5.52301L15.5138 5.87657L15.5314 5.85893L15.5472 5.83963L15.1602 5.52301ZM15.1602 5.52302L14.8066 5.16946L14.789 5.1871L14.7732 5.2064L15.1602 5.52302ZM14.7824 5.98475L15.1694 6.30136H15.1694L14.7824 5.98475ZM16.0126 7.58018L16.0624 7.08266L16.0126 7.58018ZM16.0126 10.816L15.9629 10.3185H15.9629L16.0126 10.816ZM15.419 10.8753L15.4687 11.3729H15.4687L15.419 10.8753ZM14.1552 11.2517L13.6933 11.0603V11.0603L14.1552 11.2517ZM14.7827 12.4114L15.1697 12.0948L14.7827 12.4114ZM15.1603 12.8728L15.5472 12.5562H15.5472L15.1603 12.8728ZM15.5366 13.5254L15.0372 13.5005V13.5005L15.5366 13.5254ZM15.0972 14.1372L15.4507 14.4908L15.4507 14.4908L15.0972 14.1372ZM14.1366 15.0978L13.7831 14.7443H13.7831L14.1366 15.0978ZM14.1366 15.0978L14.4902 15.4514H14.4902L14.1366 15.0978ZM13.5248 15.5372L13.5497 16.0366H13.5497L13.5248 15.5372ZM12.8722 15.1609L12.5556 15.5479V15.5479L12.8722 15.1609ZM12.4106 14.7832L12.7273 14.3963L12.7273 14.3963L12.4106 14.7832ZM11.2509 14.1557L11.4423 14.6177H11.4423L11.2509 14.1557ZM10.8746 15.4195L10.3771 15.3697V15.3697L10.8746 15.4195ZM10.8152 16.0132L10.3177 15.9635L10.3152 15.9883V16.0132H10.8152ZM10.8152 16.0132L11.3128 16.063L11.3152 16.0382V16.0132H10.8152ZM10.6199 16.7408L10.2844 16.37L10.2844 16.37L10.6199 16.7408ZM7.77475 16.7408L8.11025 16.37L8.11025 16.37L7.77475 16.7408ZM7.57944 16.0132L8.07695 15.9635L7.57944 16.0132ZM7.52006 15.4195L7.02254 15.4692L7.52006 15.4195ZM7.14373 14.1557L7.33508 13.6938H7.33508L7.14373 14.1557ZM5.98402 14.7832L6.30064 15.1702H6.30064L5.98402 14.7832ZM5.52195 15.1613L5.20534 14.7743L5.20534 14.7743L5.52195 15.1613ZM4.25754 15.0982L3.90398 15.4517H3.90398L4.25754 15.0982ZM3.29696 14.1376L3.65052 13.7841H3.65052L3.29696 14.1376ZM3.2339 12.8732L3.62088 13.1898H3.62088L3.2339 12.8732ZM3.61177 12.4114L3.22479 12.0947L3.61177 12.4114ZM4.23928 11.2516L4.70122 11.0603L4.70122 11.0603L4.23928 11.2516ZM2.97552 10.8753L3.02527 10.3778H3.02527L2.97552 10.8753ZM2.38208 10.816L2.43183 10.3185H2.43183L2.38208 10.816ZM1.65454 10.6207L1.28382 10.9562H1.28382L1.65454 10.6207ZM1.65454 7.77549L2.02527 8.11099H2.02527L1.65454 7.77549ZM2.38208 7.58018L2.33233 7.08266H2.33233L2.38208 7.58018ZM2.97582 7.52081L3.02557 8.01832L2.97582 7.52081ZM4.23958 7.14448L4.70152 7.33582L4.70152 7.33582L4.23958 7.14448ZM3.61207 5.98477L3.99904 5.66815L3.61207 5.98477ZM3.23396 5.52264L2.84698 5.83925L3.23396 5.52264ZM3.29702 4.25822L2.94347 3.90466L3.29702 4.25822ZM4.25759 3.29764L4.61115 3.6512L4.25759 3.29764ZM4.86946 2.85824L4.84455 2.35886H4.84455L4.86946 2.85824ZM5.52201 3.23458L5.83863 2.8476V2.8476L5.52201 3.23458ZM5.98403 3.6126L5.66741 3.99957L5.98403 3.6126ZM7.14375 4.24011L6.9524 3.77817L6.9524 3.77817L7.14375 4.24011ZM7.52007 2.97635L8.01759 3.0261L7.52007 2.97635ZM7.57944 2.38269L7.08192 2.33294L7.57944 2.38269ZM10.6199 1.65515L10.9554 1.28443L10.9554 1.28443L10.6199 1.65515ZM11.3152 2.38269V2.38268H10.3152V2.38269H11.3152ZM11.3721 2.92656L11.3128 2.33294L10.3177 2.43244L10.3771 3.02606L11.3721 2.92656ZM11.4423 3.77813C11.537 3.81738 11.5193 3.8956 11.4788 3.73464C11.4381 3.57297 11.4123 3.32871 11.3721 2.92656L10.3771 3.02606C10.4139 3.39441 10.4459 3.72802 10.509 3.97861C10.5722 4.22991 10.7041 4.55475 11.0596 4.70201L11.4423 3.77813ZM12.094 3.22558C11.7812 3.48151 11.5903 3.63601 11.4472 3.72157C11.3048 3.80675 11.3475 3.73887 11.4423 3.77813L11.0596 4.70201C11.4151 4.84927 11.738 4.71281 11.9604 4.57982C12.1822 4.44721 12.4407 4.23395 12.7273 3.99954L12.094 3.22558ZM12.5555 2.84799L12.094 3.22558L12.7273 3.99954L13.1888 3.62194L12.5555 2.84799ZM13.5496 2.35925C13.3177 2.34768 13.1305 2.43112 12.9835 2.52278C12.8487 2.60687 12.7022 2.72799 12.5555 2.84799L13.1888 3.62194C13.3561 3.48501 13.4451 3.41343 13.5127 3.37133C13.5681 3.33678 13.5502 3.36052 13.4998 3.358L13.5496 2.35925ZM14.4901 2.94447C14.3561 2.81048 14.2224 2.67539 14.0966 2.57829C13.9594 2.47247 13.7815 2.37081 13.5496 2.35925L13.4998 3.358C13.4494 3.35549 13.434 3.33009 13.4856 3.36998C13.5486 3.41859 13.6301 3.49868 13.783 3.65158L14.4901 2.94447ZM15.4507 3.90505L14.4901 2.94447L13.783 3.65158L14.7436 4.61215L15.4507 3.90505ZM16.0359 4.84556C16.0243 4.61363 15.9227 4.43572 15.8169 4.29859C15.7198 4.17276 15.5847 4.03904 15.4507 3.90505L14.7436 4.61215C14.8965 4.76505 14.9766 4.84652 15.0252 4.90951C15.0651 4.96121 15.0397 4.94578 15.0372 4.89537L16.0359 4.84556ZM15.5472 5.83963C15.6672 5.69297 15.7883 5.54648 15.8724 5.41161C15.964 5.26462 16.0475 5.07749 16.0359 4.84556L15.0372 4.89537C15.0346 4.84496 15.0584 4.82709 15.0238 4.88249C14.9817 4.95001 14.9101 5.03904 14.7732 5.20639L15.5472 5.83963ZM15.5137 5.87657L15.5138 5.87657L14.8066 5.16946L14.8066 5.16946L15.5137 5.87657ZM15.1694 6.30136L15.5472 5.83964L14.7732 5.2064L14.3954 5.66813L15.1694 6.30136ZM14.6168 6.95312C14.6561 7.04789 14.5882 7.09062 14.6734 6.94818C14.759 6.8051 14.9135 6.61417 15.1694 6.30136L14.3954 5.66813C14.161 5.95463 13.9478 6.21318 13.8152 6.43495C13.6822 6.65735 13.5457 6.98028 13.693 7.3358L14.6168 6.95312ZM15.4684 7.02327C15.0663 6.98305 14.822 6.95729 14.6603 6.91662C14.4994 6.87613 14.5776 6.85835 14.6168 6.95312L13.693 7.3358C13.8402 7.69132 14.1651 7.82318 14.4164 7.8864C14.667 7.94944 15.0006 7.98147 15.3689 8.0183L15.4684 7.02327ZM16.0624 7.08266L15.4684 7.02327L15.3689 8.0183L15.9629 8.0777L16.0624 7.08266ZM17.1109 7.43999C16.9551 7.26781 16.7637 7.19449 16.595 7.15537C16.4401 7.11946 16.2509 7.10152 16.0624 7.08266L15.9629 8.0777C16.178 8.09922 16.2916 8.11155 16.3691 8.12952C16.4327 8.14427 16.4033 8.14842 16.3694 8.111L17.1109 7.43999ZM17.3621 8.51885C17.3621 8.32935 17.3631 8.13928 17.3427 7.98164C17.3206 7.80985 17.2667 7.61217 17.1109 7.43999L16.3694 8.111C16.3355 8.07357 16.3426 8.04471 16.351 8.10947C16.3611 8.18838 16.3621 8.30262 16.3621 8.51885H17.3621ZM17.3621 9.87731V8.51885H16.3621V9.87731H17.3621ZM17.1109 10.9562C17.2667 10.784 17.3206 10.5863 17.3427 10.4145C17.3631 10.2569 17.3621 10.0668 17.3621 9.87731H16.3621C16.3621 10.0935 16.3611 10.2078 16.351 10.2867C16.3426 10.3515 16.3355 10.3226 16.3694 10.2852L17.1109 10.9562ZM16.0624 11.3135C16.2509 11.2946 16.4401 11.2767 16.595 11.2408C16.7637 11.2017 16.9551 11.1283 17.1109 10.9562L16.3694 10.2852C16.4033 10.2477 16.4327 10.2519 16.3691 10.2666C16.2916 10.2846 16.178 10.2969 15.9629 10.3185L16.0624 11.3135ZM15.4687 11.3729L16.0624 11.3135L15.9629 10.3185L15.3692 10.3778L15.4687 11.3729ZM14.6171 11.443C14.5779 11.5378 14.4997 11.52 14.6606 11.4795C14.8223 11.4388 15.0666 11.4131 15.4687 11.3729L15.3692 10.3778C15.0009 10.4147 14.6672 10.4467 14.4167 10.5097C14.1654 10.5729 13.8405 10.7048 13.6933 11.0603L14.6171 11.443ZM15.1697 12.0948C14.9138 11.782 14.7593 11.591 14.6737 11.448C14.5885 11.3055 14.6564 11.3482 14.6171 11.443L13.6933 11.0603C13.546 11.4158 13.6825 11.7388 13.8154 11.9612C13.9481 12.1829 14.1613 12.4415 14.3957 12.728L15.1697 12.0948ZM15.5472 12.5562L15.1697 12.0948L14.3957 12.728L14.7733 13.1894L15.5472 12.5562ZM16.036 13.5503C16.0475 13.3184 15.9641 13.1312 15.8724 12.9842C15.7883 12.8494 15.6672 12.7029 15.5472 12.5562L14.7733 13.1894C14.9102 13.3568 14.9818 13.4458 15.0239 13.5133C15.0584 13.5687 15.0347 13.5509 15.0372 13.5005L16.036 13.5503ZM15.4507 14.4908C15.5847 14.3568 15.7198 14.2231 15.8169 14.0972C15.9227 13.9601 16.0244 13.7822 16.036 13.5503L15.0372 13.5005C15.0397 13.4501 15.0651 13.4346 15.0252 13.4863C14.9766 13.5493 14.8965 13.6308 14.7436 13.7837L15.4507 14.4908ZM14.4902 15.4514L15.4507 14.4908L14.7436 13.7837L13.7831 14.7443L14.4902 15.4514ZM14.4902 15.4514L14.4902 15.4514L13.7831 14.7443L13.7831 14.7443L14.4902 15.4514ZM13.5497 16.0366C13.7816 16.025 13.9595 15.9234 14.0966 15.8176C14.2225 15.7204 14.3562 15.5854 14.4902 15.4514L13.7831 14.7443C13.6302 14.8972 13.5487 14.9772 13.4857 15.0259C13.434 15.0657 13.4494 15.0403 13.4998 15.0378L13.5497 16.0366ZM12.5556 15.5479C12.7022 15.6679 12.8487 15.789 12.9836 15.8731C13.1306 15.9647 13.3177 16.0482 13.5497 16.0366L13.4998 15.0378C13.5503 15.0353 13.5681 15.0591 13.5127 15.0245C13.4452 14.9824 13.3562 14.9108 13.1888 14.7739L12.5556 15.5479ZM12.094 15.1702L12.5556 15.5479L13.1888 14.7739L12.7273 14.3963L12.094 15.1702ZM11.4423 14.6177C11.3475 14.6569 11.3048 14.5891 11.4472 14.6742C11.5903 14.7598 11.7812 14.9143 12.094 15.1702L12.7273 14.3963C12.4408 14.1618 12.1822 13.9486 11.9604 13.816C11.738 13.683 11.4151 13.5465 11.0596 13.6938L11.4423 14.6177ZM11.3721 15.4692C11.4123 15.0671 11.4381 14.8228 11.4788 14.6612C11.5193 14.5002 11.537 14.5784 11.4423 14.6177L11.0596 13.6938C10.7041 13.8411 10.5722 14.1659 10.509 14.4172C10.4459 14.6678 10.4139 15.0014 10.3771 15.3697L11.3721 15.4692ZM11.3128 16.063L11.3721 15.4692L10.3771 15.3697L10.3177 15.9635L11.3128 16.063ZM11.3152 16.0132V16.0132H10.3152V16.0132H11.3152ZM10.9554 17.1115C11.1276 16.9557 11.2009 16.7643 11.24 16.5956C11.276 16.4408 11.2939 16.2515 11.3128 16.063L10.3177 15.9635C10.2962 16.1786 10.2839 16.2922 10.2659 16.3697C10.2511 16.4333 10.247 16.4039 10.2844 16.37L10.9554 17.1115ZM9.87656 17.3627C10.0661 17.3627 10.2561 17.3637 10.4138 17.3434C10.5856 17.3212 10.7832 17.2673 10.9554 17.1115L10.2844 16.37C10.3218 16.3362 10.3507 16.3432 10.2859 16.3516C10.207 16.3617 10.0928 16.3627 9.87656 16.3627V17.3627ZM8.51811 17.3627H9.87656V16.3627H8.51811V17.3627ZM7.43925 17.1115C7.61142 17.2673 7.8091 17.3212 7.9809 17.3434C8.13854 17.3637 8.32861 17.3627 8.51811 17.3627V16.3627C8.30187 16.3627 8.18764 16.3617 8.10872 16.3516C8.04396 16.3432 8.07283 16.3362 8.11025 16.37L7.43925 17.1115ZM7.08192 16.063C7.10077 16.2515 7.11872 16.4408 7.15462 16.5956C7.19375 16.7643 7.26707 16.9557 7.43925 17.1115L8.11025 16.37C8.14768 16.4039 8.14353 16.4333 8.12878 16.3697C8.1108 16.2922 8.09847 16.1786 8.07695 15.9635L7.08192 16.063ZM7.02254 15.4692L7.08192 16.063L8.07695 15.9635L8.01758 15.3697L7.02254 15.4692ZM6.95239 14.6176C6.85762 14.5784 6.8754 14.5002 6.91589 14.6611C6.95656 14.8228 6.98233 15.0671 7.02254 15.4692L8.01758 15.3697C7.98074 15.0014 7.94872 14.6677 7.88568 14.4171C7.82246 14.1659 7.6906 13.841 7.33508 13.6938L6.95239 14.6176ZM6.30064 15.1702C6.61344 14.9143 6.80438 14.7597 6.94745 14.6742C7.0899 14.589 7.04717 14.6569 6.95239 14.6176L7.33508 13.6938C6.97955 13.5465 6.65662 13.6829 6.43423 13.8159C6.21246 13.9486 5.95391 14.1618 5.6674 14.3962L6.30064 15.1702ZM5.83857 15.5482L6.30064 15.1702L5.6674 14.3962L5.20534 14.7743L5.83857 15.5482ZM4.8445 16.037C5.07642 16.0485 5.26356 15.9651 5.41055 15.8734C5.54542 15.7893 5.69191 15.6682 5.83857 15.5482L5.20534 14.7743C5.03798 14.9112 4.94895 14.9828 4.88143 15.0249C4.82603 15.0594 4.8439 15.0357 4.89431 15.0382L4.8445 16.037ZM3.90398 15.4517C4.03798 15.5857 4.17169 15.7208 4.29753 15.8179C4.43466 15.9238 4.61257 16.0254 4.8445 16.037L4.89431 15.0382C4.94472 15.0407 4.96014 15.0661 4.90845 15.0262C4.84545 14.9776 4.76399 14.8975 4.61109 14.7446L3.90398 15.4517ZM2.94341 14.4912L3.90398 15.4517L4.61109 14.7446L3.65052 13.7841L2.94341 14.4912ZM2.35818 13.5507C2.36975 13.7826 2.4714 13.9605 2.57722 14.0976C2.67433 14.2235 2.80941 14.3572 2.94341 14.4912L3.65052 13.7841C3.49761 13.6312 3.41753 13.5497 3.36892 13.4867C3.32903 13.435 3.35443 13.4504 3.35694 13.5008L2.35818 13.5507ZM2.84692 12.5566C2.72692 12.7032 2.60581 12.8497 2.52171 12.9846C2.43006 13.1316 2.34661 13.3187 2.35818 13.5507L3.35694 13.5008C3.35945 13.5513 3.33571 13.5691 3.37026 13.5137C3.41236 13.4462 3.48395 13.3572 3.62088 13.1898L2.84692 12.5566ZM3.22479 12.0947L2.84692 12.5566L3.62088 13.1898L3.99875 12.728L3.22479 12.0947ZM3.77734 11.443C3.73809 11.3482 3.80596 11.3055 3.72078 11.4479C3.63523 11.591 3.48072 11.7819 3.22479 12.0947L3.99875 12.728C4.23317 12.4415 4.44642 12.1829 4.57904 11.9612C4.71202 11.7388 4.84848 11.4158 4.70122 11.0603L3.77734 11.443ZM2.92577 11.3728C3.32792 11.4131 3.57219 11.4388 3.73385 11.4795C3.89481 11.52 3.8166 11.5378 3.77734 11.443L4.70122 11.0603C4.55396 10.7048 4.22912 10.5729 3.97782 10.5097C3.72724 10.4467 3.39362 10.4146 3.02527 10.3778L2.92577 11.3728ZM2.33233 11.3135L2.92577 11.3728L3.02527 10.3778L2.43183 10.3185L2.33233 11.3135ZM1.28382 10.9562C1.43964 11.1283 1.63097 11.2017 1.79971 11.2408C1.95454 11.2767 2.14377 11.2946 2.33233 11.3135L2.43183 10.3185C2.21667 10.2969 2.1031 10.2846 2.02559 10.2666C1.96198 10.2519 1.9914 10.2477 2.02527 10.2852L1.28382 10.9562ZM1.03259 9.8773C1.03259 10.0668 1.03162 10.2569 1.05194 10.4145C1.07408 10.5863 1.128 10.784 1.28382 10.9562L2.02527 10.2852C2.05914 10.3226 2.05208 10.3515 2.04374 10.2867C2.03356 10.2078 2.03259 10.0935 2.03259 9.8773H1.03259ZM1.03259 8.51885V9.8773H2.03259V8.51885H1.03259ZM1.28382 7.43999C1.128 7.61217 1.07408 7.80984 1.05194 7.98164C1.03162 8.13928 1.03259 8.32935 1.03259 8.51885H2.03259C2.03259 8.30262 2.03356 8.18838 2.04374 8.10947C2.05208 8.0447 2.05914 8.07357 2.02527 8.11099L1.28382 7.43999ZM2.33233 7.08266C2.14377 7.10152 1.95454 7.11946 1.79971 7.15536C1.63097 7.19449 1.43964 7.26781 1.28382 7.43999L2.02527 8.11099C1.9914 8.14842 1.96198 8.14427 2.02559 8.12952C2.1031 8.11155 2.21667 8.09921 2.43183 8.0777L2.33233 7.08266ZM2.92607 7.02329L2.33233 7.08266L2.43183 8.0777L3.02557 8.01832L2.92607 7.02329ZM3.77764 6.95314C3.81689 6.85837 3.8951 6.87615 3.73415 6.91664C3.57248 6.95731 3.32822 6.98307 2.92607 7.02329L3.02557 8.01832C3.39392 7.98149 3.72753 7.94946 3.97812 7.88642C4.22941 7.8232 4.55425 7.69134 4.70152 7.33582L3.77764 6.95314ZM3.22509 6.30138C3.48102 6.61419 3.63552 6.80512 3.72107 6.9482C3.80626 7.09064 3.73838 7.04791 3.77764 6.95314L4.70152 7.33582C4.84878 6.9803 4.71232 6.65737 4.57933 6.43497C4.44671 6.2132 4.23346 5.95466 3.99904 5.66815L3.22509 6.30138ZM2.84698 5.83925L3.22509 6.30138L3.99904 5.66815L3.62094 5.20602L2.84698 5.83925ZM2.35824 4.84518C2.34667 5.07711 2.43012 5.26424 2.52177 5.41123C2.60587 5.5461 2.72698 5.69259 2.84698 5.83925L3.62094 5.20602C3.48401 5.03866 3.41242 4.94963 3.37032 4.88211C3.33577 4.82671 3.35951 4.84458 3.357 4.89499L2.35824 4.84518ZM2.94347 3.90466C2.80947 4.03866 2.67438 4.17237 2.57728 4.29821C2.47146 4.43534 2.36981 4.61325 2.35824 4.84518L3.357 4.89499C3.35448 4.9454 3.32908 4.96082 3.36897 4.90913C3.41759 4.84613 3.49767 4.76467 3.65058 4.61177L2.94347 3.90466ZM3.90404 2.94409L2.94347 3.90466L3.65058 4.61177L4.61115 3.6512L3.90404 2.94409ZM4.84455 2.35886C4.61262 2.37043 4.43472 2.47208 4.29758 2.57791C4.17175 2.67501 4.03804 2.81009 3.90404 2.94409L4.61115 3.6512C4.76405 3.4983 4.84551 3.41821 4.90851 3.3696C4.9602 3.32971 4.94478 3.35511 4.89437 3.35762L4.84455 2.35886ZM5.83863 2.8476C5.69197 2.7276 5.54548 2.60649 5.4106 2.52239C5.26362 2.43074 5.07648 2.3473 4.84455 2.35886L4.89437 3.35762C4.84396 3.36014 4.82608 3.3364 4.88149 3.37094C4.94901 3.41305 5.03804 3.48463 5.20539 3.62156L5.83863 2.8476ZM6.30065 3.22562L5.83863 2.8476L5.20539 3.62156L5.66741 3.99957L6.30065 3.22562ZM6.9524 3.77817C7.04718 3.73891 7.08991 3.80679 6.94746 3.72161C6.80439 3.63605 6.61345 3.48155 6.30065 3.22562L5.66741 3.99957C5.95392 4.23399 6.21247 4.44724 6.43424 4.57986C6.65663 4.71285 6.97956 4.84931 7.33509 4.70205L6.9524 3.77817ZM7.02255 2.9266C6.98234 3.32875 6.95658 3.57301 6.9159 3.73468C6.87541 3.89563 6.85763 3.81742 6.9524 3.77817L7.33509 4.70205C7.69061 4.55478 7.82247 4.22994 7.88569 3.97865C7.94873 3.72806 7.98075 3.39445 8.01759 3.0261L7.02255 2.9266ZM7.08192 2.33294L7.02255 2.9266L8.01759 3.0261L8.07695 2.43244L7.08192 2.33294ZM7.43925 1.28443C7.26707 1.44025 7.19375 1.63158 7.15462 1.80032C7.11872 1.95515 7.10077 2.14438 7.08192 2.33294L8.07695 2.43244C8.09847 2.21728 8.1108 2.10371 8.12878 2.0262C8.14353 1.96259 8.14768 1.99201 8.11025 2.02588L7.43925 1.28443ZM8.51811 1.0332C8.32861 1.0332 8.13854 1.03223 7.9809 1.05255C7.8091 1.07469 7.61142 1.12861 7.43925 1.28443L8.11025 2.02588C8.07283 2.05975 8.04396 2.05269 8.10872 2.04435C8.18764 2.03417 8.30187 2.0332 8.51811 2.0332V1.0332ZM9.87656 1.0332H8.51811V2.0332H9.87656V1.0332ZM10.9554 1.28443C10.7832 1.12861 10.5856 1.07469 10.4138 1.05255C10.2561 1.03223 10.0661 1.0332 9.87656 1.0332V2.0332C10.0928 2.0332 10.207 2.03417 10.2859 2.04435C10.3507 2.05269 10.3218 2.05975 10.2844 2.02588L10.9554 1.28443ZM11.3128 2.33293C11.2939 2.14437 11.2759 1.95515 11.24 1.80031C11.2009 1.63158 11.1276 1.44025 10.9554 1.28443L10.2844 2.02588C10.247 1.99201 10.2511 1.96259 10.2659 2.02619C10.2839 2.10371 10.2962 2.21727 10.3177 2.43243L11.3128 2.33293ZM11.7631 9.19784C11.7631 10.6149 10.6143 11.7637 9.19723 11.7637V12.7637C11.1666 12.7637 12.7631 11.1672 12.7631 9.19784H11.7631ZM9.19723 6.63194C10.6143 6.63194 11.7631 7.78073 11.7631 9.19784H12.7631C12.7631 7.22844 11.1666 5.63194 9.19723 5.63194V6.63194ZM6.63133 9.19784C6.63133 7.78073 7.78012 6.63194 9.19723 6.63194V5.63194C7.22783 5.63194 5.63133 7.22844 5.63133 9.19784H6.63133ZM9.19723 11.7637C7.78012 11.7637 6.63133 10.6149 6.63133 9.19784H5.63133C5.63133 11.1672 7.22783 12.7637 9.19723 12.7637V11.7637Z" fill="#252F69"/>
</svg>
