<svg width="27" height="21" viewBox="0 0 27 21" fill="none" xmlns="http://www.w3.org/2000/svg">
<path d="M9.65685 15.5065H9.6649M6.4379 18.0136H12.8758C13.7647 18.0136 14.4853 17.2653 14.4853 16.3422V4.64257C14.4853 3.71949 13.7647 2.97119 12.8758 2.97119H6.4379C5.54902 2.97119 4.82843 3.71949 4.82843 4.64257V16.3422C4.82843 17.2653 5.54902 18.0136 6.4379 18.0136Z" stroke="#252F69" stroke-linecap="round" stroke-linejoin="round"/>
<rect x="12.6285" y="5.2002" width="5.19984" height="11.1425" fill="white"/>
<path d="M13.3718 9.60382H26M15.2289 12.5221H21.543M15.4765 14.8567H23.8953C25.0577 14.8567 26 14.0728 26 13.1058V8.43651C26 7.46948 25.0577 6.68555 23.8953 6.68555H15.4765C14.3141 6.68555 13.3718 7.46948 13.3718 8.43651V13.1058C13.3718 14.0728 14.3141 14.8567 15.4765 14.8567Z" stroke="#060606" stroke-linecap="round" stroke-linejoin="round"/>
</svg>
