<svg width="37" height="37" viewBox="0 0 37 37" fill="none" xmlns="http://www.w3.org/2000/svg">
<path d="M30.0624 16.4766C29.1788 16.4773 28.3042 16.6542 27.4898 16.9969L23.4718 10.1172H27.7499C28.1332 10.1172 28.5009 10.2695 28.7719 10.5405C29.043 10.8116 29.1952 11.1792 29.1952 11.5625C29.1952 11.7925 29.2866 12.0131 29.4492 12.1757C29.6119 12.3383 29.8324 12.4297 30.0624 12.4297C30.2924 12.4297 30.513 12.3383 30.6756 12.1757C30.8382 12.0131 30.9296 11.7925 30.9296 11.5625C30.9258 10.7204 30.5896 9.91381 29.9941 9.31832C29.3986 8.72284 28.5921 8.38661 27.7499 8.38281H21.9687C21.8164 8.38272 21.6667 8.42274 21.5348 8.49885C21.4028 8.57497 21.2933 8.6845 21.2171 8.81641C21.1396 8.94774 21.0986 9.09748 21.0986 9.25C21.0986 9.40253 21.1396 9.55226 21.2171 9.68359L23.1538 13.0078H14.1784L11.7359 8.81641C11.6597 8.6845 11.5501 8.57497 11.4182 8.49885C11.2863 8.42274 11.1366 8.38272 10.9843 8.38281H6.93742C6.70743 8.38281 6.48686 8.47418 6.32423 8.63681C6.1616 8.79944 6.07023 9.02001 6.07023 9.25C6.07023 9.47999 6.1616 9.70056 6.32423 9.86319C6.48686 10.0258 6.70743 10.1172 6.93742 10.1172H10.4929L12.6464 13.8172L10.1171 17.2859C9.14333 16.75 8.04891 16.4715 6.93742 16.4766C5.38833 16.474 3.88678 17.0114 2.69098 17.9961C1.49518 18.9809 0.679874 20.3515 0.385278 21.8723C0.0906817 23.3932 0.335205 24.9691 1.07679 26.3291C1.81839 27.6892 3.01069 28.7483 4.44867 29.3244C5.88666 29.9005 7.48044 29.9576 8.95593 29.4858C10.4314 29.014 11.6964 28.0428 12.5333 26.7392C13.3703 25.4357 13.7268 23.8813 13.5417 22.3433C13.3566 20.8053 12.6414 19.3798 11.5191 18.3121L13.6003 15.4648L18.3265 23.5586C18.4026 23.6905 18.5122 23.8 18.6441 23.8761C18.7761 23.9523 18.9257 23.9923 19.078 23.9922C19.2299 23.9898 19.3788 23.9501 19.5116 23.8766C19.6104 23.8197 19.6969 23.7439 19.7664 23.6535C19.8358 23.5631 19.8867 23.46 19.9163 23.3499C19.9458 23.2398 19.9533 23.125 19.9385 23.012C19.9236 22.899 19.8866 22.7901 19.8296 22.6914L15.1902 14.7422H24.1655L26.0011 17.8785C24.7624 18.8442 23.9064 20.2181 23.5856 21.7556C23.2649 23.2932 23.5 24.8947 24.2493 26.2751C24.9985 27.6556 26.2133 28.7254 27.6773 29.2942C29.1414 29.863 30.7598 29.8939 32.2445 29.3814C33.7292 28.8689 34.9839 27.8462 35.7853 26.4954C36.5867 25.1445 36.8828 23.5532 36.6209 22.0045C36.3591 20.4558 35.5562 19.0503 34.3552 18.038C33.1543 17.0258 31.6331 16.4724 30.0624 16.4766ZM11.8515 23.125C11.8483 24.1879 11.4996 25.2209 10.8579 26.0683C10.2163 26.9156 9.31644 27.5313 8.29421 27.8225C7.27199 28.1137 6.18279 28.0646 5.19093 27.6826C4.19906 27.3006 3.35831 26.6064 2.79551 25.7047C2.23271 24.8031 1.97838 23.7428 2.07088 22.684C2.16338 21.6251 2.59769 20.625 3.30831 19.8346C4.01893 19.0442 4.96731 18.5063 6.01039 18.3021C7.05347 18.0978 8.13469 18.2383 9.09094 18.7023L6.24367 22.6191C6.17454 22.7092 6.12443 22.8124 6.09639 22.9224C6.06834 23.0325 6.06293 23.147 6.0805 23.2592C6.09808 23.3714 6.13825 23.4788 6.1986 23.575C6.25894 23.6712 6.3382 23.7541 6.43156 23.8188C6.57621 23.9312 6.75421 23.9922 6.93742 23.9922C7.0735 23.9917 7.20748 23.9586 7.32817 23.8958C7.44886 23.8329 7.55275 23.7421 7.63117 23.6309L10.4929 19.7285C11.3647 20.6445 11.8511 21.8605 11.8515 23.125ZM30.0624 28.0391C29.0571 28.0383 28.0762 27.7291 27.252 27.1534C26.4279 26.5776 25.8001 25.7629 25.4535 24.8192C25.1069 23.8755 25.0581 22.8482 25.3137 21.8758C25.5693 20.9035 26.1169 20.033 26.8827 19.3816L29.3109 23.5586C29.387 23.6905 29.4966 23.8 29.6285 23.8761C29.7604 23.9523 29.9101 23.9923 30.0624 23.9922C30.2143 23.9898 30.3632 23.9501 30.496 23.8766C30.5948 23.8197 30.6813 23.7439 30.7507 23.6535C30.8202 23.5631 30.8711 23.46 30.9006 23.3499C30.9302 23.2398 30.9377 23.125 30.9229 23.012C30.908 22.899 30.871 22.7901 30.814 22.6914L28.3714 18.5145C28.9119 18.3111 29.485 18.2083 30.0624 18.2109C31.3657 18.2109 32.6156 18.7287 33.5372 19.6502C34.4588 20.5718 34.9765 21.8217 34.9765 23.125C34.9765 24.4283 34.4588 25.6782 33.5372 26.5998C32.6156 27.5213 31.3657 28.0391 30.0624 28.0391Z" fill="#484F76"/>
</svg>
