<svg width="37" height="37" viewBox="0 0 37 37" fill="none" xmlns="http://www.w3.org/2000/svg">
<path d="M15.416 3.7H14.491V4.625C14.491 4.64858 14.491 4.67234 14.4909 4.69624C14.4904 4.96126 14.4898 5.24459 14.5536 5.49989C14.7416 6.25305 15.3296 6.84111 16.0828 7.02913C16.3381 7.09286 16.6214 7.09229 16.8864 7.09176C16.9103 7.09171 16.9341 7.09167 16.9577 7.09167H20.041C20.0646 7.09167 20.0884 7.09171 20.1123 7.09176C20.3773 7.09229 20.6606 7.09286 20.9159 7.02913C21.6691 6.84111 22.2571 6.25305 22.4451 5.49989C22.5089 5.24459 22.5083 4.96126 22.5078 4.69624C22.5077 4.67234 22.5077 4.64858 22.5077 4.625V3.7H21.5827H15.416Z" stroke="#484F76" stroke-width="1.85"/>
<rect x="10.4062" y="4.23975" width="16.1875" height="28.5208" rx="3.54583" stroke="#484F76" stroke-width="2.3125"/>
<circle cx="18.5007" cy="27.7497" r="1.54167" fill="#484F76"/>
</svg>
