<svg width="41" height="37" viewBox="0 0 41 37" fill="none" xmlns="http://www.w3.org/2000/svg">
<path d="M13.4766 18.4995L13.4766 12.8662C13.4766 9.16588 16.4763 6.16618 20.1766 6.16618V6.16618C23.8769 6.16618 26.8766 9.16588 26.8766 12.8662L26.8766 18.4995" stroke="#484F76" stroke-width="2.3125" stroke-linecap="round"/>
<path d="M5.92569 23.2728C6.32978 18.8097 6.53182 16.5781 8.0113 15.2266C9.49077 13.875 11.7314 13.875 16.2128 13.875H24.1404C28.6218 13.875 30.8624 13.875 32.3419 15.2266C33.8214 16.5781 34.0234 18.8097 34.4275 23.2728L34.7419 26.7447C34.9802 29.3774 35.0994 30.6938 34.3315 31.5344C33.5635 32.375 32.2418 32.375 29.5983 32.375H10.7549C8.11139 32.375 6.78965 32.375 6.02172 31.5344C5.25378 30.6938 5.37296 29.3774 5.61133 26.7447L5.92569 23.2728Z" stroke="#484F76" stroke-width="2.3125"/>
</svg>
