<svg width="37" height="37" viewBox="0 0 37 37" fill="none" xmlns="http://www.w3.org/2000/svg">
<path d="M7.70801 19.6707C7.70801 17.5775 7.70801 16.5309 8.13114 15.6109C8.55426 14.691 9.34891 14.0098 10.9382 12.6476L12.4799 11.3262C15.3525 8.86393 16.7888 7.63281 18.4997 7.63281C20.2106 7.63281 21.6469 8.86393 24.5195 11.3262L26.0612 12.6476C27.6504 14.0098 28.4451 14.691 28.8682 15.6109C29.2913 16.5309 29.2913 17.5775 29.2913 19.6707V26.208C29.2913 29.115 29.2913 30.5685 28.3883 31.4716C27.4852 32.3747 26.0317 32.3747 23.1247 32.3747H13.8747C10.9677 32.3747 9.51418 32.3747 8.6111 31.4716C7.70801 30.5685 7.70801 29.115 7.70801 26.208V19.6707Z" stroke="#484F76" stroke-width="2.3125"/>
<path d="M22.3538 32.375V25.0714C22.3538 23.9964 21.4824 23.125 20.4075 23.125H16.5919C15.5169 23.125 14.6455 23.9964 14.6455 25.0714V32.375" stroke="#484F76" stroke-width="2.3125" stroke-linecap="round" stroke-linejoin="round"/>
</svg>
